<?xml version="1.0" encoding="UTF-8" standalone="no"?>
<svg
   xmlns:dc="http://purl.org/dc/elements/1.1/"
   xmlns:cc="http://creativecommons.org/ns#"
   xmlns:rdf="http://www.w3.org/1999/02/22-rdf-syntax-ns#"
   xmlns:svg="http://www.w3.org/2000/svg"
   xmlns="http://www.w3.org/2000/svg"
   xmlns:sodipodi="http://sodipodi.sourceforge.net/DTD/sodipodi-0.dtd"
   xmlns:inkscape="http://www.inkscape.org/namespaces/inkscape"
   viewBox="0 0 128 128"
   id="svg2"
   version="1.1"
   inkscape:version="0.47 r22583"
   width="100%"
   height="100%"
   sodipodi:docname="Liar.svg"
   inkscape:export-filename="/home/nfroidure/Bureau/LocalServer/elitwork/projects/games/liar/materials/chrome/icon-128.png"
   inkscape:export-xdpi="90"
   inkscape:export-ydpi="90">
  <metadata
     id="metadata30">
    <rdf:RDF>
      <cc:Work
         rdf:about="">
        <dc:format>image/svg+xml</dc:format>
        <dc:type
           rdf:resource="http://purl.org/dc/dcmitype/StillImage" />
        <dc:title>HTML5 Logo</dc:title>
      </cc:Work>
    </rdf:RDF>
  </metadata>
  <defs
     id="defs28">
    <inkscape:perspective
       sodipodi:type="inkscape:persp3d"
       inkscape:vp_x="0 : 256 : 1"
       inkscape:vp_y="0 : 1000 : 0"
       inkscape:vp_z="512 : 256 : 1"
       inkscape:persp3d-origin="256 : 170.66667 : 1"
       id="perspective32" />
  </defs>
  <sodipodi:namedview
     pagecolor="#ffffff"
     bordercolor="#666666"
     borderopacity="1"
     objecttolerance="10"
     gridtolerance="10"
     guidetolerance="10"
     inkscape:pageopacity="0"
     inkscape:pageshadow="2"
     inkscape:window-width="1280"
     inkscape:window-height="949"
     id="namedview26"
     showgrid="false"
     inkscape:zoom="1.4142136"
     inkscape:cx="-135.81541"
     inkscape:cy="73.11535"
     inkscape:window-x="0"
     inkscape:window-y="25"
     inkscape:window-maximized="1"
     inkscape:current-layer="svg2" />
  <title
     id="title4">HTML5 Logo</title>
  <g
     id="g2825">
    <polygon
       transform="matrix(0.27437869,0,0,0.27437869,-6.0974455,-19.384568)"
       style="fill:#0088aa"
       id="polygon6"
       points="74.633,100.62 437.367,100.62 404.321,470.819 255.778,512 107.644,470.877 " />
    <polygon
       transform="matrix(0.27437869,0,0,0.27437869,-6.0974455,-19.384568)"
       style="fill:#006680"
       id="polygon8"
       points="376.03,447.246 404.27,130.894 256,130.894 256,480.523 " />
    <path
       id="path2825"
       style="font-size:109.11982727px;font-style:normal;font-variant:normal;font-weight:normal;font-stretch:normal;text-align:start;line-height:125%;writing-mode:lr-tb;text-anchor:start;fill:#6f8a91;fill-opacity:1;stroke:none;font-family:eufm10;-inkscape-font-specification:eufm10"
       d="m 31.576893,97.590508 -1.704997,-2.397652 c 1.13666,-2.735097 2.344365,-5.328111 3.623119,-7.77905 1.314261,-2.450924 2.823892,-4.68873 4.528899,-6.713427 10.478607,-1.562898 15.717917,-5.239295 15.717944,-11.029202 -2.7e-5,-1.030076 -0.444036,-2.504186 -1.332029,-4.422336 -0.852524,-1.91809 -1.971427,-4.120376 -3.356713,-6.606865 -0.817,-1.456314 -1.633977,-3.036987 -2.450934,-4.742024 -0.781477,-1.704954 -1.43861,-3.374429 -1.971403,-5.008429 -0.53283,-1.669429 -0.799235,-3.250102 -0.799218,-4.742024 -1.7e-5,-1.704944 0.390711,-3.4277 1.172186,-5.168273 0.816958,-1.74046 1.8293,-3.392175 3.037026,-4.955148 1.243205,-1.562852 2.521951,-3.036963 3.836244,-4.422337 3.019238,-3.019198 6.535791,-5.310285 10.549671,-6.87327 4.049329,-1.598361 8.276297,-2.397578 12.680918,-2.397653 3.125776,7.5e-5 5.665509,0.390803 7.619206,1.172186 1.989105,0.78153 3.463216,2.095797 4.422337,3.942806 0.99452,1.811628 1.49181,4.262559 1.491873,7.352801 -6.3e-5,0.817039 -0.0711,2.078026 -0.213125,3.782963 -0.355269,3.267966 -0.532873,5.274888 -0.532812,6.020771 -6.1e-5,1.456403 0.568271,2.362182 1.704998,2.71734 1.1366,0.355257 2.717273,0.532861 4.742023,0.532811 l 0,2.291091 -11.668575,2.983745 c -1.705052,-0.781412 -2.877236,-1.598389 -3.516557,-2.450934 -0.639426,-0.887972 -0.959113,-2.184479 -0.959061,-3.889525 -5.2e-5,-1.385258 0.142031,-3.179056 0.42625,-5.381398 0.14203,-1.420773 0.213072,-2.575198 0.213124,-3.463275 -5.2e-5,-3.871702 -0.87031,-6.571278 -2.610777,-8.098738 -1.740566,-1.527324 -4.617746,-2.29102 -8.631549,-2.29109 -2.450972,7e-5 -4.866383,0.532881 -7.246238,1.598435 -2.344403,1.065691 -4.262523,2.575322 -5.754366,4.528899 -1.456379,1.953705 -2.184554,4.173751 -2.184528,6.660146 -2.6e-5,1.385366 0.230859,2.948278 0.692655,4.688743 0.461743,1.705047 1.030075,3.339002 1.704998,4.901867 0.710386,1.56296 1.491842,3.196914 2.344371,4.901867 1.278716,2.628577 2.273296,5.026227 2.983745,7.192957 0.745902,2.13128 1.11887,4.351327 1.118905,6.660146 l 0,1.225467 c -2.024718,2.486479 -4.777575,5.39918 -8.258581,8.738111 l -2.610777,2.610777 c -0.461794,0.461786 -0.817001,0.834754 -1.065624,1.118905 -0.248668,0.24866 -0.515073,0.532826 -0.799217,0.852498 l 1.598435,0 c 3.05476,1.24324 6.038502,2.379904 8.951236,3.409995 2.912668,1.030112 5.860889,1.88261 8.844673,2.557496 3.019222,0.674902 6.002964,1.012349 8.951236,1.012342 3.587544,7e-6 6.535766,-0.497283 8.844674,-1.491873 2.308788,-0.994572 4.155867,-2.521964 5.541241,-4.58218 1.385244,-2.06019 2.592949,-4.866328 3.623119,-8.418424 l 1.758279,1.172186 c -0.888089,5.115007 -1.935951,9.341975 -3.143589,12.680917 -1.06569,2.877188 -2.202353,5.043953 -3.409995,6.500302 -1.207769,1.420831 -2.788442,2.433172 -4.742024,3.037027 -1.918179,0.60385 -4.333589,0.905777 -7.246238,0.90578 -4.298062,-3e-6 -9.00456,-0.81698 -14.119509,-2.450934 -5.079504,-1.598434 -10.6385,-3.658637 -16.677005,-6.180615 -2.593035,-1.136658 -4.919643,-1.70499 -6.979833,-1.704998 -0.888032,8e-6 -1.918134,0.621621 -3.090307,1.864841 -1.136675,1.207711 -2.184537,2.57526 -3.143589,4.10265 -0.959068,1.527393 -1.793805,2.841661 -2.504215,3.942806" />
    <path
       id="path2828"
       style="font-size:109.11982727px;font-style:normal;font-variant:normal;font-weight:normal;font-stretch:normal;text-align:start;line-height:125%;writing-mode:lr-tb;text-anchor:start;fill:#ffffff;fill-opacity:1;stroke:none;font-family:eufm10;-inkscape-font-specification:eufm10"
       d="m 29.576893,95.590508 -1.704997,-2.397652 c 1.13666,-2.735097 2.344365,-5.328111 3.623119,-7.77905 1.314261,-2.450924 2.823892,-4.68873 4.528899,-6.713427 10.478607,-1.562898 15.717917,-5.239295 15.717944,-11.029202 -2.7e-5,-1.030076 -0.444036,-2.504186 -1.332029,-4.422336 -0.852524,-1.91809 -1.971427,-4.120376 -3.356713,-6.606865 -0.817,-1.456314 -1.633977,-3.036987 -2.450934,-4.742024 -0.781477,-1.704954 -1.43861,-3.374429 -1.971403,-5.008429 -0.53283,-1.669429 -0.799235,-3.250102 -0.799218,-4.742024 -1.7e-5,-1.704944 0.390711,-3.4277 1.172186,-5.168273 0.816958,-1.74046 1.8293,-3.392175 3.037026,-4.955148 1.243205,-1.562852 2.521951,-3.036963 3.836244,-4.422337 3.019238,-3.019198 6.535791,-5.310285 10.549671,-6.87327 4.049329,-1.598361 8.276297,-2.397578 12.680918,-2.397653 3.125776,7.5e-5 5.665509,0.390803 7.619206,1.172186 1.989105,0.78153 3.463216,2.095797 4.422337,3.942806 0.99452,1.811628 1.49181,4.262559 1.491873,7.352801 -6.3e-5,0.817039 -0.0711,2.078026 -0.213125,3.782963 -0.355269,3.267966 -0.532873,5.274888 -0.532812,6.020771 -6.1e-5,1.456403 0.568271,2.362182 1.704998,2.71734 1.1366,0.355257 2.717273,0.532861 4.742023,0.532811 l 0,2.291091 -11.668575,2.983745 c -1.705052,-0.781412 -2.877236,-1.598389 -3.516557,-2.450934 -0.639426,-0.887972 -0.959113,-2.184479 -0.959061,-3.889525 -5.2e-5,-1.385258 0.142031,-3.179056 0.42625,-5.381398 0.14203,-1.420773 0.213072,-2.575198 0.213124,-3.463275 -5.2e-5,-3.871702 -0.87031,-6.571278 -2.610777,-8.098738 -1.740566,-1.527324 -4.617746,-2.29102 -8.631549,-2.29109 -2.450972,7e-5 -4.866383,0.532881 -7.246238,1.598435 -2.344403,1.065691 -4.262523,2.575322 -5.754366,4.528899 -1.456379,1.953705 -2.184554,4.173751 -2.184528,6.660146 -2.6e-5,1.385366 0.230859,2.948278 0.692655,4.688743 0.461743,1.705047 1.030075,3.339002 1.704998,4.901867 0.710386,1.56296 1.491842,3.196914 2.344371,4.901867 1.278716,2.628577 2.273296,5.026227 2.983745,7.192957 0.745902,2.13128 1.11887,4.351327 1.118905,6.660146 l 0,1.225467 c -2.024718,2.486479 -4.777575,5.39918 -8.258581,8.738111 l -2.610777,2.610777 c -0.461794,0.461786 -0.817001,0.834754 -1.065624,1.118905 -0.248668,0.24866 -0.515073,0.532826 -0.799217,0.852498 l 1.598435,0 c 3.05476,1.24324 6.038502,2.379904 8.951236,3.409995 2.912668,1.030112 5.860889,1.88261 8.844673,2.557496 3.019222,0.674902 6.002964,1.012349 8.951236,1.012342 3.587544,7e-6 6.535766,-0.497283 8.844674,-1.491873 2.308788,-0.994572 4.155867,-2.521964 5.541241,-4.58218 1.385244,-2.06019 2.592949,-4.866328 3.623119,-8.418424 l 1.758279,1.172186 c -0.888089,5.115007 -1.935951,9.341975 -3.143589,12.680917 -1.06569,2.877188 -2.202353,5.043953 -3.409995,6.500302 -1.207769,1.420831 -2.788442,2.433172 -4.742024,3.037027 -1.918179,0.60385 -4.333589,0.905777 -7.246238,0.90578 -4.298062,-3e-6 -9.00456,-0.81698 -14.119509,-2.450934 -5.079504,-1.598434 -10.6385,-3.658637 -16.677005,-6.180615 -2.593035,-1.136658 -4.919643,-1.70499 -6.979833,-1.704998 -0.888032,8e-6 -1.918134,0.621621 -3.090307,1.864841 -1.136675,1.207711 -2.184537,2.57526 -3.143589,4.10265 -0.959068,1.527393 -1.793805,2.841661 -2.504215,3.942806" />
  </g>
</svg>
